# xmcd
#
# Track frame offsets:
# 150
# 9630
# 25665
# 38812
# 51959
# 68559
# 77934
# 93708
# 119668
# 132008
# 147411
#
# Disc length: 2206 seconds
#
#
# Revision: 0
# Processed by: cddbd v1.5.2PL0 Copyright (c) Steve Scherf et al.
# Submitted via: FreeRIP 2.92 
#
DISCID=96089c0b
DTITLE=Blues Brothers - Made in America
DYEAR=1980
DGENRE=
TTITLE0=Soul Finger
TTITLE1=Who's Making Love?
TTITLE2=Do You Love Me
TTITLE3=Do You Love Me
TTITLE4=Guilty
TTITLE5=Perry Mason Theme
TTITLE6=Riot in Cell Block Number Nine
TTITLE7=Green Onions
TTITLE8=I Ain't Got You
TTITLE9=From the Bottom
TTITLE10=Going Back to Miami
EXTD=
EXTT0=
EXTT1=
EXTT2=
EXTT3=
EXTT4=
EXTT5=
EXTT6=
EXTT7=
EXTT8=
EXTT9=
EXTT10=
PLAYORDER=
